<?xml version="1.0" encoding="UTF-8"?>
<svg xmlns="http://www.w3.org/2000/svg" xmlns:xlink="http://www.w3.org/1999/xlink" width="3873" height="3872.9" viewBox="0 0 3873 3872.9">
<defs>
<clipPath id="clip-0">

</clipPath>
<clipPath id="clip-1">
<path clip-rule="evenodd" d="M 756.398438 0 L 3116.5 0 C 3534.300781 0 3873 338.699219 3873 756.398438 L 3873 3116.5 C 3873 3534.300781 3534.300781 3872.898438 3116.601562 3872.898438 L 756.398438 3872.898438 C 338.699219 3873 0 3534.300781 0 3116.5 L 0 756.398438 C 0 338.699219 338.699219 0 756.398438 0 "/>
</clipPath>
<linearGradient id="linear-pattern-0" gradientUnits="userSpaceOnUse" x1="-0.194443" y1="0" x2="1.19443" y2="0" gradientTransform="matrix(2788.55, 2788.56, -2788.56, 2788.55, 542.221, 542.21)">
<stop offset="0" stop-color="rgb(33.724976%, 70.979309%, 76.861572%)" stop-opacity="1"/>
<stop offset="0.125" stop-color="rgb(33.724976%, 70.979309%, 76.861572%)" stop-opacity="1"/>
<stop offset="0.140625" stop-color="rgb(33.718872%, 70.977783%, 76.847839%)" stop-opacity="1"/>
<stop offset="0.148438" stop-color="rgb(33.642578%, 70.954895%, 76.654053%)" stop-opacity="1"/>
<stop offset="0.15625" stop-color="rgb(33.502197%, 70.91217%, 76.296997%)" stop-opacity="1"/>
<stop offset="0.164062" stop-color="rgb(33.361816%, 70.869446%, 75.939941%)" stop-opacity="1"/>
<stop offset="0.171875" stop-color="rgb(33.221436%, 70.826721%, 75.582886%)" stop-opacity="1"/>
<stop offset="0.179688" stop-color="rgb(33.081055%, 70.783997%, 75.224304%)" stop-opacity="1"/>
<stop offset="0.1875" stop-color="rgb(32.940674%, 70.742798%, 74.867249%)" stop-opacity="1"/>
<stop offset="0.195312" stop-color="rgb(32.800293%, 70.700073%, 74.510193%)" stop-opacity="1"/>
<stop offset="0.203125" stop-color="rgb(32.659912%, 70.657349%, 74.153137%)" stop-opacity="1"/>
<stop offset="0.210938" stop-color="rgb(32.519531%, 70.614624%, 73.794556%)" stop-opacity="1"/>
<stop offset="0.21875" stop-color="rgb(32.37915%, 70.571899%, 73.4375%)" stop-opacity="1"/>
<stop offset="0.226563" stop-color="rgb(32.23877%, 70.529175%, 73.080444%)" stop-opacity="1"/>
<stop offset="0.234375" stop-color="rgb(32.098389%, 70.48645%, 72.723389%)" stop-opacity="1"/>
<stop offset="0.242188" stop-color="rgb(31.958008%, 70.443726%, 72.364807%)" stop-opacity="1"/>
<stop offset="0.25" stop-color="rgb(31.817627%, 70.401001%, 72.007751%)" stop-opacity="1"/>
<stop offset="0.257812" stop-color="rgb(31.677246%, 70.359802%, 71.650696%)" stop-opacity="1"/>
<stop offset="0.265625" stop-color="rgb(31.536865%, 70.317078%, 71.29364%)" stop-opacity="1"/>
<stop offset="0.273438" stop-color="rgb(31.396484%, 70.274353%, 70.935059%)" stop-opacity="1"/>
<stop offset="0.28125" stop-color="rgb(31.256104%, 70.231628%, 70.578003%)" stop-opacity="1"/>
<stop offset="0.289063" stop-color="rgb(31.115723%, 70.188904%, 70.220947%)" stop-opacity="1"/>
<stop offset="0.296875" stop-color="rgb(30.975342%, 70.146179%, 69.863892%)" stop-opacity="1"/>
<stop offset="0.304688" stop-color="rgb(30.834961%, 70.103455%, 69.50531%)" stop-opacity="1"/>
<stop offset="0.3125" stop-color="rgb(30.69458%, 70.06073%, 69.148254%)" stop-opacity="1"/>
<stop offset="0.320312" stop-color="rgb(30.554199%, 70.018005%, 68.791199%)" stop-opacity="1"/>
<stop offset="0.328125" stop-color="rgb(30.413818%, 69.976807%, 68.434143%)" stop-opacity="1"/>
<stop offset="0.335938" stop-color="rgb(30.273438%, 69.934082%, 68.075562%)" stop-opacity="1"/>
<stop offset="0.34375" stop-color="rgb(30.133057%, 69.891357%, 67.718506%)" stop-opacity="1"/>
<stop offset="0.351562" stop-color="rgb(29.992676%, 69.848633%, 67.36145%)" stop-opacity="1"/>
<stop offset="0.359375" stop-color="rgb(29.852295%, 69.805908%, 67.004395%)" stop-opacity="1"/>
<stop offset="0.367187" stop-color="rgb(29.711914%, 69.763184%, 66.645813%)" stop-opacity="1"/>
<stop offset="0.375" stop-color="rgb(29.571533%, 69.720459%, 66.288757%)" stop-opacity="1"/>
<stop offset="0.382813" stop-color="rgb(29.431152%, 69.677734%, 65.931702%)" stop-opacity="1"/>
<stop offset="0.390625" stop-color="rgb(29.290771%, 69.636536%, 65.574646%)" stop-opacity="1"/>
<stop offset="0.398438" stop-color="rgb(29.150391%, 69.593811%, 65.216064%)" stop-opacity="1"/>
<stop offset="0.40625" stop-color="rgb(29.01001%, 69.551086%, 64.859009%)" stop-opacity="1"/>
<stop offset="0.414062" stop-color="rgb(28.869629%, 69.508362%, 64.501953%)" stop-opacity="1"/>
<stop offset="0.421875" stop-color="rgb(28.729248%, 69.465637%, 64.144897%)" stop-opacity="1"/>
<stop offset="0.429688" stop-color="rgb(28.588867%, 69.422913%, 63.786316%)" stop-opacity="1"/>
<stop offset="0.4375" stop-color="rgb(28.448486%, 69.380188%, 63.42926%)" stop-opacity="1"/>
<stop offset="0.445312" stop-color="rgb(28.308105%, 69.337463%, 63.072205%)" stop-opacity="1"/>
<stop offset="0.453125" stop-color="rgb(28.166199%, 69.294739%, 62.715149%)" stop-opacity="1"/>
<stop offset="0.460937" stop-color="rgb(28.025818%, 69.25354%, 62.356567%)" stop-opacity="1"/>
<stop offset="0.46875" stop-color="rgb(27.885437%, 69.210815%, 61.999512%)" stop-opacity="1"/>
<stop offset="0.476562" stop-color="rgb(27.745056%, 69.168091%, 61.642456%)" stop-opacity="1"/>
<stop offset="0.484375" stop-color="rgb(27.604675%, 69.125366%, 61.2854%)" stop-opacity="1"/>
<stop offset="0.492188" stop-color="rgb(27.464294%, 69.082642%, 60.926819%)" stop-opacity="1"/>
<stop offset="0.5" stop-color="rgb(27.323914%, 69.039917%, 60.569763%)" stop-opacity="1"/>
<stop offset="0.507812" stop-color="rgb(27.183533%, 68.997192%, 60.212708%)" stop-opacity="1"/>
<stop offset="0.515625" stop-color="rgb(27.043152%, 68.954468%, 59.855652%)" stop-opacity="1"/>
<stop offset="0.523438" stop-color="rgb(26.902771%, 68.911743%, 59.498596%)" stop-opacity="1"/>
<stop offset="0.53125" stop-color="rgb(26.76239%, 68.870544%, 59.140015%)" stop-opacity="1"/>
<stop offset="0.539062" stop-color="rgb(26.622009%, 68.82782%, 58.782959%)" stop-opacity="1"/>
<stop offset="0.546875" stop-color="rgb(26.481628%, 68.785095%, 58.425903%)" stop-opacity="1"/>
<stop offset="0.554688" stop-color="rgb(26.341248%, 68.742371%, 58.068848%)" stop-opacity="1"/>
<stop offset="0.5625" stop-color="rgb(26.200867%, 68.699646%, 57.710266%)" stop-opacity="1"/>
<stop offset="0.570313" stop-color="rgb(26.060486%, 68.656921%, 57.35321%)" stop-opacity="1"/>
<stop offset="0.578125" stop-color="rgb(25.920105%, 68.614197%, 56.996155%)" stop-opacity="1"/>
<stop offset="0.585938" stop-color="rgb(25.779724%, 68.571472%, 56.639099%)" stop-opacity="1"/>
<stop offset="0.59375" stop-color="rgb(25.639343%, 68.528748%, 56.280518%)" stop-opacity="1"/>
<stop offset="0.601563" stop-color="rgb(25.498962%, 68.487549%, 55.923462%)" stop-opacity="1"/>
<stop offset="0.609375" stop-color="rgb(25.358582%, 68.444824%, 55.566406%)" stop-opacity="1"/>
<stop offset="0.617188" stop-color="rgb(25.218201%, 68.4021%, 55.209351%)" stop-opacity="1"/>
<stop offset="0.625" stop-color="rgb(25.07782%, 68.359375%, 54.850769%)" stop-opacity="1"/>
<stop offset="0.632812" stop-color="rgb(24.937439%, 68.31665%, 54.493713%)" stop-opacity="1"/>
<stop offset="0.640625" stop-color="rgb(24.797058%, 68.273926%, 54.136658%)" stop-opacity="1"/>
<stop offset="0.648438" stop-color="rgb(24.656677%, 68.231201%, 53.779602%)" stop-opacity="1"/>
<stop offset="0.65625" stop-color="rgb(24.516296%, 68.188477%, 53.421021%)" stop-opacity="1"/>
<stop offset="0.664062" stop-color="rgb(24.375916%, 68.145752%, 53.063965%)" stop-opacity="1"/>
<stop offset="0.671875" stop-color="rgb(24.235535%, 68.104553%, 52.706909%)" stop-opacity="1"/>
<stop offset="0.679688" stop-color="rgb(24.095154%, 68.061829%, 52.349854%)" stop-opacity="1"/>
<stop offset="0.6875" stop-color="rgb(23.954773%, 68.019104%, 51.991272%)" stop-opacity="1"/>
<stop offset="0.695312" stop-color="rgb(23.814392%, 67.976379%, 51.634216%)" stop-opacity="1"/>
<stop offset="0.703125" stop-color="rgb(23.674011%, 67.933655%, 51.277161%)" stop-opacity="1"/>
<stop offset="0.710938" stop-color="rgb(23.53363%, 67.89093%, 50.920105%)" stop-opacity="1"/>
<stop offset="0.71875" stop-color="rgb(23.39325%, 67.848206%, 50.561523%)" stop-opacity="1"/>
<stop offset="0.726562" stop-color="rgb(23.252869%, 67.805481%, 50.204468%)" stop-opacity="1"/>
<stop offset="0.734375" stop-color="rgb(23.112488%, 67.762756%, 49.847412%)" stop-opacity="1"/>
<stop offset="0.742187" stop-color="rgb(22.972107%, 67.721558%, 49.490356%)" stop-opacity="1"/>
<stop offset="0.75" stop-color="rgb(22.831726%, 67.678833%, 49.131775%)" stop-opacity="1"/>
<stop offset="0.757813" stop-color="rgb(22.689819%, 67.636108%, 48.774719%)" stop-opacity="1"/>
<stop offset="0.765625" stop-color="rgb(22.549438%, 67.593384%, 48.417664%)" stop-opacity="1"/>
<stop offset="0.773438" stop-color="rgb(22.409058%, 67.550659%, 48.060608%)" stop-opacity="1"/>
<stop offset="0.78125" stop-color="rgb(22.268677%, 67.507935%, 47.702026%)" stop-opacity="1"/>
<stop offset="0.789062" stop-color="rgb(22.128296%, 67.46521%, 47.344971%)" stop-opacity="1"/>
<stop offset="0.796875" stop-color="rgb(21.987915%, 67.422485%, 46.987915%)" stop-opacity="1"/>
<stop offset="0.804688" stop-color="rgb(21.847534%, 67.381287%, 46.630859%)" stop-opacity="1"/>
<stop offset="0.8125" stop-color="rgb(21.707153%, 67.338562%, 46.272278%)" stop-opacity="1"/>
<stop offset="0.820312" stop-color="rgb(21.566772%, 67.295837%, 45.915222%)" stop-opacity="1"/>
<stop offset="0.828125" stop-color="rgb(21.426392%, 67.253113%, 45.558167%)" stop-opacity="1"/>
<stop offset="0.835938" stop-color="rgb(21.286011%, 67.210388%, 45.201111%)" stop-opacity="1"/>
<stop offset="0.84375" stop-color="rgb(21.14563%, 67.167664%, 44.842529%)" stop-opacity="1"/>
<stop offset="0.851562" stop-color="rgb(21.005249%, 67.124939%, 44.485474%)" stop-opacity="1"/>
<stop offset="0.859375" stop-color="rgb(20.864868%, 67.082214%, 44.128418%)" stop-opacity="1"/>
<stop offset="0.875" stop-color="rgb(20.788574%, 67.059326%, 43.934631%)" stop-opacity="1"/>
<stop offset="1" stop-color="rgb(20.783997%, 67.0578%, 43.920898%)" stop-opacity="1"/>
</linearGradient>
</defs>
<g clip-path="url(#clip-0)">
<g clip-path="url(#clip-1)">
<path fill-rule="nonzero" fill="url(#linear-pattern-0)" d="M 1936.507812 -1936.5 L -1936.449219 1936.441406 L 1936.492188 5809.398438 L 5809.449219 1936.457031 Z M 1936.507812 -1936.5 "/>
</g>
</g>
<path fill-rule="evenodd" fill="rgb(100%, 100%, 99.609375%)" fill-opacity="1" d="M 484.101562 1179.699219 L 484.101562 873.699219 C 484.101562 751 584.601562 650.601562 707.199219 650.601562 L 3165.601562 650.601562 C 3288.300781 650.601562 3388.699219 751.101562 3388.699219 873.699219 L 3388.699219 1179.699219 Z M 938 826.199219 C 892.800781 826.199219 854.800781 863.5 854.800781 907.5 C 854.800781 953.5 892.101562 990.699219 938 990.699219 C 982.800781 990.699219 1019.300781 953.398438 1019.300781 907.5 C 1019.300781 862.699219 982.800781 826.199219 938 826.199219 Z M 938 1051.199219 C 858.800781 1051.199219 794.300781 986.699219 794.300781 907.5 C 794.300781 870.101562 809.199219 834.5 836.699219 807.5 C 863.898438 780.5 900.101562 765.699219 938.101562 765.699219 C 1016.398438 765.699219 1079.898438 829.199219 1079.898438 907.5 C 1079.898438 945.699219 1065.300781 981.601562 1038.898438 1008.898438 C 1012.101562 1036.101562 976.199219 1051.199219 938 1051.199219 Z M 1295.398438 826.199219 C 1250.199219 826.199219 1212.199219 863.5 1212.199219 907.5 C 1212.199219 953.5 1249.5 990.699219 1295.398438 990.699219 C 1339.5 990.699219 1376.699219 952.699219 1376.699219 907.5 C 1376.699219 863.5 1339.5 826.199219 1295.398438 826.199219 Z M 1295.398438 1051.199219 C 1216.199219 1051.199219 1151.699219 986.699219 1151.699219 907.5 C 1151.699219 870.101562 1166.601562 834.5 1194.101562 807.5 C 1221.300781 780.5 1257.5 765.699219 1295.5 765.699219 C 1372.5 765.699219 1437.300781 830.601562 1437.300781 907.5 C 1437.300781 945.5 1422.398438 981.601562 1395.5 1008.898438 C 1368.398438 1036.300781 1332.898438 1051.199219 1295.398438 1051.199219 Z M 1652.800781 826.199219 C 1607.601562 826.199219 1569.601562 863.5 1569.601562 907.5 C 1569.601562 953.5 1606.898438 990.699219 1652.800781 990.699219 C 1696.898438 990.699219 1734.101562 952.699219 1734.101562 907.5 C 1734.199219 863.5 1696.898438 826.199219 1652.800781 826.199219 Z M 1652.800781 1051.199219 C 1573.601562 1051.199219 1509.101562 986.699219 1509.101562 907.5 C 1509.101562 870.101562 1524 834.5 1551.5 807.5 C 1578.699219 780.5 1614.898438 765.699219 1652.898438 765.699219 C 1729.898438 765.699219 1794.699219 830.601562 1794.699219 907.5 C 1794.699219 945.5 1779.800781 981.601562 1752.898438 1008.898438 C 1725.800781 1036.300781 1690.300781 1051.199219 1652.800781 1051.199219 Z M 2416.800781 1009.601562 L 3131.601562 1009.601562 L 3131.601562 826.199219 L 2416.800781 826.199219 Z M 3161.898438 1070.199219 L 2386.5 1070.199219 C 2369.898438 1070.199219 2356.199219 1056.601562 2356.199219 1039.898438 L 2356.199219 795.898438 C 2356.199219 779.300781 2369.800781 765.601562 2386.5 765.601562 L 3161.898438 765.601562 C 3178.5 765.601562 3192.199219 779.199219 3192.199219 795.898438 L 3192.199219 1039.898438 C 3192.199219 1056.5 3178.601562 1070.199219 3161.898438 1070.199219 Z M 1660.398438 2677.800781 C 1651.699219 2677.800781 1643 2674 1637.101562 2666.800781 L 1258.898438 2211 C 1249.601562 2199.800781 1249.601562 2183.601562 1258.898438 2172.398438 L 1637.101562 1714.800781 C 1647.699219 1701.898438 1666.800781 1700 1679.601562 1710.800781 C 1692.5 1721.398438 1694.398438 1740.5 1683.601562 1753.300781 L 1321.5 2191.699219 L 1683.601562 2628.199219 C 1694.199219 2641.101562 1692.5 2660.199219 1679.601562 2670.699219 C 1674 2675.5 1667.199219 2677.800781 1660.398438 2677.800781 Z M 2212.601562 2677.800781 C 2205.800781 2677.800781 2199 2675.5 2193.300781 2670.800781 C 2180.398438 2660.199219 2178.699219 2641.101562 2189.300781 2628.300781 L 2551.398438 2191.800781 L 2189.101562 1753.398438 C 2178.5 1740.5 2180.199219 1721.398438 2193.101562 1710.898438 C 2206 1700.300781 2225.101562 1702 2235.601562 1714.898438 L 2613.800781 2172.5 C 2623.101562 2183.699219 2623.101562 2199.898438 2613.800781 2211.101562 L 2235.601562 2666.898438 C 2229.800781 2674 2221.300781 2677.800781 2212.601562 2677.800781 Z M 1792.800781 2755.300781 C 1790.199219 2755.300781 1787.5 2754.898438 1784.898438 2754.199219 C 1768.800781 2749.898438 1759.199219 2733.199219 1763.5 2717.101562 L 2050.898438 1648.601562 C 2055.199219 1632.5 2071.898438 1622.898438 2088 1627.199219 C 2104.101562 1631.5 2113.699219 1648.199219 2109.398438 1664.300781 L 1822 2732.800781 C 1818.300781 2746.5 1806.199219 2755.300781 1792.800781 2755.300781 Z M 3165.699219 3222.398438 L 707.300781 3222.398438 C 647.898438 3222.398438 592.101562 3199.101562 549.800781 3156.800781 C 507.398438 3114.398438 484.199219 3058.5 484.199219 2999.300781 L 484.199219 1240.199219 L 3388.898438 1240.199219 L 3388.898438 2999.199219 C 3388.898438 3058.601562 3365.601562 3114.398438 3323.300781 3156.699219 C 3280.898438 3199.199219 3225.101562 3222.398438 3165.699219 3222.398438 "/>
</svg>
